<svg fill="none" viewBox="0 0 252 35">
  <path d="M17.785 6.165a.402.402 0 0 1 0 .568l-.288.29a.401.401 0 1 1-.568-.567l.288-.29a.401.401 0 0 1 .568 0Z" fill="url(#a)"/>
  <path d="M13.017 7.32a.402.402 0 0 1 0 .568l-6.978 6.967a.401.401 0 1 1-.567-.569L12.45 7.32a.401.401 0 0 1 .567.001Z" fill="url(#b)"/>
  <path d="M8.172 8.495a.402.402 0 0 1 0 .568l-2.388 2.384a.401.401 0 1 1-.567-.568l2.388-2.385a.401.401 0 0 1 .567 0Z" fill="url(#c)"/>
  <path d="M22.626 5.052a.402.402 0 0 1 0 .567L21.41 6.832a.401.401 0 1 1-.567-.568l1.215-1.213a.401.401 0 0 1 .568 0Z" fill="url(#d)"/>
  <path d="M25.398 5.946a.402.402 0 0 1 0 .568l-1.566 1.562a.401.401 0 1 1-.567-.568l1.566-1.563a.401.401 0 0 1 .567 0Z" fill="url(#e)"/>
  <path d="M26.68 8.328a.402.402 0 0 1 0 .568l-1.122 1.12a.401.401 0 1 1-.567-.569l1.122-1.12a.401.401 0 0 1 .567 0Z" fill="url(#f)"/>
  <path d="M8.133 15.858a.402.402 0 0 1 0 .568L6.748 17.81a.401.401 0 1 1-.567-.568l1.385-1.383a.401.401 0 0 1 .567 0Z" fill="url(#g)"/>
  <path d="M27.39 11.282a.401.401 0 0 1 0 .568l-.978.975a.401.401 0 1 1-.566-.568l.976-.975a.401.401 0 0 1 .568 0Z" fill="url(#h)"/>
  <path d="M28.099 14.237a.402.402 0 0 1-.001.567l-1.185 1.183a.401.401 0 1 1-.567-.568l1.185-1.183a.401.401 0 0 1 .568 0Z" fill="url(#i)"/>
  <path d="M8.635 19.02a.402.402 0 0 1 0 .568l-1.178 1.176a.401.401 0 1 1-.567-.569l1.177-1.175a.401.401 0 0 1 .568 0Z" fill="url(#j)"/>
  <path d="M28.808 17.191a.402.402 0 0 1 0 .568l-1.385 1.382a.401.401 0 1 1-.567-.569l1.384-1.381a.401.401 0 0 1 .568 0Z" fill="url(#k)"/>
  <path d="M9.142 22.176a.402.402 0 0 1 0 .568l-.976.974a.401.401 0 1 1-.567-.568l.975-.974a.401.401 0 0 1 .568 0Z" fill="url(#l)"/>
  <path d="M29.517 20.145a.402.402 0 0 1 0 .568l-6.98 6.968a.401.401 0 1 1-.566-.569l6.978-6.967a.401.401 0 0 1 .568 0Z" fill="url(#m)"/>
  <path d="M10 24.982a.401.401 0 0 1 0 .567l-1.125 1.123a.401.401 0 1 1-.567-.568l1.125-1.123a.401.401 0 0 1 .567 0Z" fill="url(#n)"/>
  <path d="M11.718 26.929a.402.402 0 0 1 0 .567l-1.56 1.559a.401.401 0 1 1-.568-.569l1.56-1.558a.401.401 0 0 1 .568 0Z" fill="url(#o)"/>
  <path d="M29.772 23.553a.401.401 0 0 1 0 .568l-2.39 2.385a.401.401 0 1 1-.567-.568l2.39-2.386a.401.401 0 0 1 .567 0Z" fill="url(#p)"/>
  <path d="M14.143 28.17a.402.402 0 0 1 0 .568l-1.214 1.211a.401.401 0 1 1-.567-.568l1.213-1.211a.401.401 0 0 1 .568 0Z" fill="url(#q)"/>
  <path d="M18.087 28.545a.401.401 0 0 0-.57-.566l-.261.263a.401.401 0 0 0 .569.566l.262-.263Z" fill="url(#r)"/>
  <path fill-rule="evenodd" clip-rule="evenodd" d="M14.555 9.227c2.216-2.184 5.993-2.324 8.396-.281a5.14 5.14 0 0 1 1.912 3.796c.041.7-.073 1.4-.333 2.05.82.881 1.3 2.026 1.354 3.23.08 1.432-.491 2.854-1.558 3.895l-3.903 3.858c-2.215 2.185-5.975 2.32-8.396.281a5.248 5.248 0 0 1-1.908-3.78c-.04-.7.073-1.4.334-2.05a5.083 5.083 0 0 1-1.355-3.23c-.08-1.432.492-2.855 1.559-3.896l3.898-3.873Zm-.924 15.242c1.147.976 2.823 1.157 4.214.44.31-.175.595-.377.835-.618l3.903-3.858c.641-.62.994-1.49.947-2.346a3.16 3.16 0 0 0-1.161-2.275c-1.147-.976-2.824-1.158-4.214-.44-.31.175-.595.376-.835.618l-1.49 1.475a1.53 1.53 0 0 1-.247.174l-.008.005a1.152 1.152 0 0 1-1.277-.128.967.967 0 0 1-.341-.685.92.92 0 0 1 .288-.704l3.886-3.853c.07-.067.162-.122.252-.177l.004-.002a1.15 1.15 0 0 1 1.277.127c.178.158.302.378.338.604l.021.161.178.007a6.36 6.36 0 0 1 1.997.422l.27.102.022-.272c.016-.154.02-.289.018-.439a3.16 3.16 0 0 0-1.16-2.274c-1.147-.977-2.824-1.158-4.214-.44a3.77 3.77 0 0 0-.835.618l-3.903 3.858c-.641.621-.994 1.49-.947 2.346a3.147 3.147 0 0 0 1.144 2.279c1.147.976 2.824 1.158 4.214.44.314-.158.599-.36.838-.602l1.49-1.475c.071-.067.162-.122.252-.177l.004-.002a1.149 1.149 0 0 1 1.277.127c.2.169.33.422.341.686a.923.923 0 0 1-.288.703l-3.886 3.855c-.07.065-.158.119-.248.174l-.008.004a1.159 1.159 0 0 1-1.28-.142 1.046 1.046 0 0 1-.338-.605l-.023-.161-.176-.007a6.363 6.363 0 0 1-1.998-.422l-.27-.102-.022.272a17.531 17.531 0 0 1-.002.434 3.162 3.162 0 0 0 1.16 2.275Z" fill="url(#s)"/>
  <path fill-rule="evenodd" clip-rule="evenodd" d="M.252 14.421C-.913 9.571 2.075 4.694 6.924 3.53L20.57.252c4.85-1.165 9.724 1.823 10.888 6.674l3.277 13.653c1.164 4.85-1.823 9.727-6.672 10.892l-13.648 3.277c-4.85 1.165-9.724-1.823-10.888-6.674L.252 14.42ZM7.696 6.75l13.648-3.278A5.718 5.718 0 0 1 28.24 7.7l3.276 13.653a5.72 5.72 0 0 1-4.225 6.898l-13.648 3.278A5.718 5.718 0 0 1 6.747 27.3L3.471 13.648A5.72 5.72 0 0 1 7.696 6.75Z" fill="url(#t)"/>
  <path fill-rule="evenodd" clip-rule="evenodd" d="M87.418 27.991V7.01h3V27.99h-3Zm-3.56-6.55H73.663c.19.857.577 1.593 1.109 2.159.762.81 1.91 1.365 3.475 1.365 1.893 0 3.003-.801 3.744-1.59l2.186 2.055c-1.15 1.223-3.002 2.535-5.93 2.535-2.327 0-4.288-.85-5.66-2.31-1.361-1.447-2.057-3.398-2.057-5.464 0-2.033.627-3.976 1.918-5.432 1.31-1.478 3.208-2.343 5.496-2.343 4.76 0 7.414 3.823 7.414 7.525v1.5h-1.5Zm-10.083-3c.2-.666.515-1.238.918-1.692.702-.793 1.762-1.333 3.251-1.333 2.185 0 3.652 1.317 4.188 3.025h-8.357Zm41.724 3h-10.195c.19.857.577 1.593 1.109 2.159.763.81 1.91 1.365 3.475 1.365 1.893 0 3.003-.801 3.744-1.59l2.186 2.055c-1.149 1.223-3.002 2.535-5.93 2.535-2.327 0-4.288-.85-5.661-2.31-1.36-1.447-2.056-3.398-2.056-5.464 0-2.033.627-3.976 1.918-5.432 1.31-1.478 3.208-2.343 5.496-2.343 4.761 0 7.414 3.823 7.414 7.525v1.5h-1.5Zm-10.083-3c.2-.666.515-1.238.918-1.692.703-.793 1.762-1.333 3.251-1.333 2.185 0 3.652 1.317 4.188 3.025h-8.357ZM95.032 9.465v3.072h-2.764v3h2.764v12.453h3V15.538h2.764v-3h-2.764V9.466h-3ZM61.44 26.992 56.563 13.98l2.809-1.053 3.951 10.541 3.952-10.541 2.809 1.053-4.878 13.012-.365.973h-3.036l-.365-.973Zm-9.446-14.277c-.761-.255-1.815-.396-2.868-.294-1.043.102-2.307.467-3.235 1.454-1.378 1.464-1.705 3.78-.367 5.502 1.079 1.387 2.664 1.808 3.87 2.128l.385.104c1.75.486 2.357.844 2.617 1.105.102.103.216.32.237.635.02.322-.067.555-.135.648-.638.883-2.001 1.18-3.695.824-.858-.18-1.517-.625-2.08-1.78l-2.698 1.313c.929 1.907 2.31 3.013 4.16 3.402 2.035.43 5.028.373 6.745-2.002.558-.772.753-1.736.696-2.602-.057-.872-.383-1.831-1.104-2.555-.866-.868-2.168-1.387-3.94-1.879l-.176-.049c-1.5-.416-2.08-.576-2.513-1.134-.31-.398-.324-1.066.183-1.604.24-.256.687-.46 1.341-.524.645-.063 1.273.035 1.621.152.688.231 1.306.666 1.727 1.403l2.605-1.488c-.835-1.462-2.09-2.326-3.376-2.759Z" fill="url(#u)"/>
  <path fill-rule="evenodd" clip-rule="evenodd" d="M123.142 19.478V7.008h3v6.68a7.088 7.088 0 0 1 11.174 5.792v8.511h-3v-8.51a4.088 4.088 0 1 0-8.174-.002v8.512h-3v-8.513Zm67.895-12.47v20.983h3V7.008h-3ZM142.295 21.44h10.195l1.5.001v-1.5c0-3.702-2.653-7.525-7.414-7.525-2.288 0-4.186.865-5.496 2.343-1.29 1.456-1.918 3.399-1.918 5.432 0 2.066.696 4.017 2.057 5.464 1.373 1.46 3.333 2.31 5.66 2.31 2.928 0 4.781-1.313 5.93-2.535l-2.186-2.055c-.741.789-1.851 1.59-3.744 1.59-1.565 0-2.712-.554-3.475-1.365-.532-.566-.919-1.302-1.109-2.16Zm1.03-4.691a4.481 4.481 0 0 0-.917 1.691h8.356c-.536-1.708-2.002-3.024-4.188-3.024-1.489 0-2.548.54-3.251 1.333Zm55.965 4.691h10.195l1.501.001v-1.5c0-3.702-2.654-7.525-7.415-7.525-2.288 0-4.186.865-5.496 2.343-1.29 1.456-1.918 3.399-1.918 5.432 0 2.066.696 4.017 2.057 5.464 1.373 1.46 3.334 2.31 5.66 2.31 2.928 0 4.781-1.313 5.93-2.535l-2.186-2.055c-.741.789-1.851 1.59-3.744 1.59-1.564 0-2.712-.554-3.475-1.365-.532-.566-.918-1.302-1.109-2.16Zm1.03-4.691a4.481 4.481 0 0 0-.917 1.691h8.356c-.535-1.708-2.002-3.024-4.188-3.024-1.489 0-2.548.54-3.251 1.333Zm16.58-4.328c1.053-.103 2.107.038 2.868.294 1.286.432 2.541 1.297 3.376 2.759l-2.605 1.488c-.421-.737-1.039-1.172-1.726-1.403-.349-.117-.977-.215-1.621-.152-.654.064-1.102.268-1.342.523-.506.538-.493 1.206-.183 1.605.433.557 1.014.718 2.513 1.134l.176.049c1.772.492 3.074 1.01 3.94 1.879.721.723 1.047 1.683 1.104 2.555.057.866-.138 1.83-.696 2.602-1.717 2.375-4.71 2.43-6.745 2.002-1.85-.39-3.231-1.495-4.159-3.402l2.697-1.313c.563 1.155 1.222 1.599 2.08 1.78 1.694.356 3.057.059 3.695-.825.068-.093.156-.326.135-.647-.021-.315-.135-.532-.236-.635-.261-.261-.867-.62-2.617-1.105-.124-.035-.253-.069-.386-.105-1.206-.32-2.791-.74-3.87-2.128-1.338-1.72-1.011-4.037.367-5.501.928-.987 2.193-1.352 3.235-1.454Zm15.293.294c-.761-.256-1.815-.397-2.868-.294-1.043.102-2.307.467-3.235 1.454-1.378 1.464-1.705 3.78-.367 5.501 1.079 1.388 2.664 1.809 3.869 2.128l.386.104c1.751.486 2.357.845 2.617 1.106.102.103.216.32.237.635.021.321-.067.554-.135.648-.638.883-2.001 1.18-3.695.824-.858-.181-1.518-.625-2.08-1.78l-2.698 1.313c.929 1.907 2.31 3.013 4.16 3.402 2.035.429 5.028.373 6.745-2.002.558-.772.753-1.736.696-2.602-.057-.872-.383-1.832-1.105-2.555-.865-.869-2.167-1.387-3.939-1.88l-.176-.048c-1.5-.416-2.08-.577-2.513-1.134-.311-.399-.324-1.067.183-1.605.24-.255.687-.46 1.341-.523.644-.063 1.273.035 1.621.152.688.231 1.306.666 1.727 1.403l2.605-1.488c-.835-1.462-2.09-2.327-3.376-2.759Zm-63.981-.347v1.675a7.773 7.773 0 0 0-12.543 6.137 7.773 7.773 0 0 0 12.543 6.136v1.675h3V12.368h-3Zm-4.771 3.038a4.773 4.773 0 0 1 4.771 4.741v.065a4.773 4.773 0 0 1-9.543-.032 4.773 4.773 0 0 1 4.772-4.774Zm21.994-1.363V7.008h3V27.992h-3v-1.676a7.773 7.773 0 0 1-12.543-6.137 7.773 7.773 0 0 1 12.543-6.136Zm0 6.096a4.772 4.772 0 0 0-9.543.04 4.773 4.773 0 0 0 9.543.041v-.081Zm53.336-9.13a4 4 0 0 1 4-4H248a4 4 0 0 1 4 4v5.233a4 4 0 0 1-4 4h-5.229a4 4 0 0 1-4-4v-5.234Zm8.207.191v3.645a3.208 3.208 0 1 1-6.416 0V11.2h1.78v3.645a1.428 1.428 0 1 0 2.856 0V11.2h1.78Zm3.231 6.61V11.2h-1.781v6.61h1.781Zm-.891-7.117a.89.89 0 0 1-.89-.89V9.8a.89.89 0 1 1 1.78 0v.003a.89.89 0 0 1-.89.89Z" fill="url(#v)"/>
  <defs>
    <radialGradient id="a" cx="0" cy="0" r="1" gradientUnits="userSpaceOnUse" gradientTransform="rotate(-153.242 23.676 9.698) scale(48.7076 78.2819)">
      <stop stop-color="#FF40D5"/>
      <stop offset="1" stop-color="#F90"/>
    </radialGradient>
    <radialGradient id="b" cx="0" cy="0" r="1" gradientUnits="userSpaceOnUse" gradientTransform="rotate(-153.242 23.676 9.698) scale(48.7076 78.2819)">
      <stop stop-color="#FF40D5"/>
      <stop offset="1" stop-color="#F90"/>
    </radialGradient>
    <radialGradient id="c" cx="0" cy="0" r="1" gradientUnits="userSpaceOnUse" gradientTransform="rotate(-153.242 23.676 9.698) scale(48.7076 78.2819)">
      <stop stop-color="#FF40D5"/>
      <stop offset="1" stop-color="#F90"/>
    </radialGradient>
    <radialGradient id="d" cx="0" cy="0" r="1" gradientUnits="userSpaceOnUse" gradientTransform="rotate(-153.242 23.676 9.698) scale(48.7076 78.2819)">
      <stop stop-color="#FF40D5"/>
      <stop offset="1" stop-color="#F90"/>
    </radialGradient>
    <radialGradient id="e" cx="0" cy="0" r="1" gradientUnits="userSpaceOnUse" gradientTransform="rotate(-153.242 23.676 9.698) scale(48.7076 78.2819)">
      <stop stop-color="#FF40D5"/>
      <stop offset="1" stop-color="#F90"/>
    </radialGradient>
    <radialGradient id="f" cx="0" cy="0" r="1" gradientUnits="userSpaceOnUse" gradientTransform="rotate(-153.242 23.676 9.698) scale(48.7076 78.2819)">
      <stop stop-color="#FF40D5"/>
      <stop offset="1" stop-color="#F90"/>
    </radialGradient>
    <radialGradient id="g" cx="0" cy="0" r="1" gradientUnits="userSpaceOnUse" gradientTransform="rotate(-153.242 23.676 9.698) scale(48.7076 78.2819)">
      <stop stop-color="#FF40D5"/>
      <stop offset="1" stop-color="#F90"/>
    </radialGradient>
    <radialGradient id="h" cx="0" cy="0" r="1" gradientUnits="userSpaceOnUse" gradientTransform="rotate(-153.242 23.676 9.698) scale(48.7076 78.2819)">
      <stop stop-color="#FF40D5"/>
      <stop offset="1" stop-color="#F90"/>
    </radialGradient>
    <radialGradient id="i" cx="0" cy="0" r="1" gradientUnits="userSpaceOnUse" gradientTransform="rotate(-153.242 23.676 9.698) scale(48.7076 78.2819)">
      <stop stop-color="#FF40D5"/>
      <stop offset="1" stop-color="#F90"/>
    </radialGradient>
    <radialGradient id="j" cx="0" cy="0" r="1" gradientUnits="userSpaceOnUse" gradientTransform="rotate(-153.242 23.676 9.698) scale(48.7076 78.2819)">
      <stop stop-color="#FF40D5"/>
      <stop offset="1" stop-color="#F90"/>
    </radialGradient>
    <radialGradient id="k" cx="0" cy="0" r="1" gradientUnits="userSpaceOnUse" gradientTransform="rotate(-153.242 23.676 9.698) scale(48.7076 78.2819)">
      <stop stop-color="#FF40D5"/>
      <stop offset="1" stop-color="#F90"/>
    </radialGradient>
    <radialGradient id="l" cx="0" cy="0" r="1" gradientUnits="userSpaceOnUse" gradientTransform="rotate(-153.242 23.676 9.698) scale(48.7076 78.2819)">
      <stop stop-color="#FF40D5"/>
      <stop offset="1" stop-color="#F90"/>
    </radialGradient>
    <radialGradient id="m" cx="0" cy="0" r="1" gradientUnits="userSpaceOnUse" gradientTransform="rotate(-153.242 23.676 9.698) scale(48.7076 78.2819)">
      <stop stop-color="#FF40D5"/>
      <stop offset="1" stop-color="#F90"/>
    </radialGradient>
    <radialGradient id="n" cx="0" cy="0" r="1" gradientUnits="userSpaceOnUse" gradientTransform="rotate(-153.242 23.676 9.698) scale(48.7076 78.2819)">
      <stop stop-color="#FF40D5"/>
      <stop offset="1" stop-color="#F90"/>
    </radialGradient>
    <radialGradient id="o" cx="0" cy="0" r="1" gradientUnits="userSpaceOnUse" gradientTransform="rotate(-153.242 23.676 9.698) scale(48.7076 78.2819)">
      <stop stop-color="#FF40D5"/>
      <stop offset="1" stop-color="#F90"/>
    </radialGradient>
    <radialGradient id="p" cx="0" cy="0" r="1" gradientUnits="userSpaceOnUse" gradientTransform="rotate(-153.242 23.676 9.698) scale(48.7076 78.2819)">
      <stop stop-color="#FF40D5"/>
      <stop offset="1" stop-color="#F90"/>
    </radialGradient>
    <radialGradient id="q" cx="0" cy="0" r="1" gradientUnits="userSpaceOnUse" gradientTransform="rotate(-153.242 23.676 9.698) scale(48.7076 78.2819)">
      <stop stop-color="#FF40D5"/>
      <stop offset="1" stop-color="#F90"/>
    </radialGradient>
    <radialGradient id="r" cx="0" cy="0" r="1" gradientUnits="userSpaceOnUse" gradientTransform="rotate(-153.242 23.676 9.698) scale(48.7076 78.2819)">
      <stop stop-color="#FF40D5"/>
      <stop offset="1" stop-color="#F90"/>
    </radialGradient>
    <radialGradient id="s" cx="0" cy="0" r="1" gradientUnits="userSpaceOnUse" gradientTransform="rotate(-153.242 23.676 9.698) scale(48.7076 78.2819)">
      <stop stop-color="#FF40D5"/>
      <stop offset="1" stop-color="#F90"/>
    </radialGradient>
    <radialGradient id="t" cx="0" cy="0" r="1" gradientUnits="userSpaceOnUse" gradientTransform="rotate(-153.242 23.676 9.698) scale(48.7076 78.2819)">
      <stop stop-color="#FF40D5"/>
      <stop offset="1" stop-color="#F90"/>
    </radialGradient>
    <linearGradient id="u" x1="216.266" y1="41.618" x2="176.087" y2="-58.149" gradientUnits="userSpaceOnUse">
      <stop stop-color="#FE24CE"/>
      <stop offset="1" stop-color="#F90"/>
    </linearGradient>
    <linearGradient id="v" x1="266.586" y1="-22.184" x2="202.917" y2="-31.648" gradientUnits="userSpaceOnUse">
      <stop stop-color="#66E3FF"/>
      <stop offset="1" stop-color="#5451EB"/>
      <stop offset="1" stop-color="#5451EB"/>
    </linearGradient>
  </defs>
</svg>
